{"title":"Burke.and.Hare.2010.BRRIP.720P.H264-ZEKTORM","uid":6188194,"size":2097880232,"categoryP":"video","categoryS":"hd___movies","magnet":"?xt=urn:btih:ca54ac204e625969bfb48a7543d7b991e56b7ac9&amp;dn=Burke.and.Hare.2010.BRRIP.720P.H264-ZEKTORM&amp;tr=udp%3A%2F%2Ftracker.openbittorrent.com%3A80&amp;tr=udp%3A%2F%2Fopen.demonii.com%3A1337&amp;tr=udp%3A%2F%2Ftracker.coppersurfer.tk%3A6969&amp;tr=udp%3A%2F%2Fexodus.desync.com%3A6969","seeders":0,"leechers":0,"uploader":"blowley","files":4,"time":1298193524,"description":"Title                            : Burke and Hare\nYear                             : 2010\nGenre                            : Comedy | Thriller\niMDB URL                         : http://www.imdb.com/title/tt1320239/\n\nComplete name                    : Burke.and.Hare.2010.BRRIP.720P.H264-ZEKTORM.mp4\nFormat                           : MPEG-4\nFormat profile                   : Base Media\nCodec ID                         : isom\nFile size                        : 1.95 GiB\nDuration                         : 1h 31mn\nOverall bit rate                 : 3058 Kbps\nSubtitles                        : English (Format: srt)\n\nVideo\nID                               : 1\nFormat                           : AVC\nFormat/Info                      : Advanced Video Codec\nFormat profile                   : &lt;a class=&quot;__cf_email__&quot; href=&quot;/cdn-cgi/l/email-protection&quot; data-cfemail=&quot;b6fedfd1def6fa829886&quot;&gt;[email&amp;#160;protected]&lt;/a&gt;&lt;script cf-hash='f9e31' type=&quot;text/javascript&quot;&gt;\n/* &lt;![CDATA[ */!function(){try{var t=&quot;currentScript&quot;in document?document.currentScript:function(){for(var t=document.getElementsByTagName(&quot;script&quot;),e=t.length;e--;)if(t[e].getAttribute(&quot;cf-hash&quot;))return t[e]}();if(t&amp;&amp;t.previousSibling){var e,r,n,i,c=t.previousSibling,a=c.getAttribute(&quot;data-cfemail&quot;);if(a){for(e=&quot;&quot;,r=parseInt(a.substr(0,2),16),n=2;a.length-n;n+=2)i=parseInt(a.substr(n,2),16)^r,e+=String.fromCharCode(i);e=document.createTextNode(e),c.parentNode.replaceChild(e,c)}}}catch(u){}}();/* ]]&gt; */&lt;/script&gt;\nFormat settings, CABAC           : Yes\nFormat settings, ReFrames        : 12 frames\nCodec ID                         : avc1\nCodec ID/Info                    : Advanced Video Coding\nDuration                         : 1h 31mn\nBit rate mode                    : Variable\nBit rate                         : 2619 Kbps\nWidth                            : 1280 pixels\nHeight                           : 528 pixels\nDisplay aspect ratio             : 2.424\nFrame rate mode                  : Constant\nFrame rate                       : 24.000 fps\nResolution                       : 24 bits\nColorimetry                      : 4:2:0\nScan type                        : Progressive\nBits/(Pixel*Frame)               : 0.161\nStream size                      : 1.67 GiB (86%)\nTitle                            : Video\nWriting library                  : x264\n\nAudio\nID                               : 2\nFormat                           : AAC\nFormat/Info                      : Advanced Audio Codec\nFormat version                   : Version 4\nFormat profile                   : LC\nFormat settings, SBR             : No\nCodec ID                         : 40\nDuration                         : 1h 31mn\nBit rate mode                    : Variable\nBit rate                         : 435 Kbps\nMaximum bit rate                 : 541 Kbps\nChannel(s)                       : 6 channels\nChannel positions                : Front: L C R, Rear: L R, LFE\nSampling rate                    : 48.0 KHz\nResolution                       : 16 bits\nStream size                      : 285 MiB (14%)\nLanguage                         : English\n\n\nScreenshots:\n &lt;a href=&quot;\nhttp://img257.imageshack.us/img257/7378/snapbh1.png&quot; rel=&quot;nofollow&quot; target=&quot;_NEW&quot;&gt;\nhttp://img257.imageshack.us/img257/7378/snapbh1.png&lt;/a&gt;\n &lt;a href=&quot;\nhttp://img806.imageshack.us/img806/7913/snapbh2.png&quot; rel=&quot;nofollow&quot; target=&quot;_NEW&quot;&gt;\nhttp://img806.imageshack.us/img806/7913/snapbh2.png&lt;/a&gt;\n &lt;a href=&quot;\nhttp://img69.imageshack.us/img69/2945/snapbh3.png&quot; rel=&quot;nofollow&quot; target=&quot;_NEW&quot;&gt;\nhttp://img69.imageshack.us/img69/2945/snapbh3.png&lt;/a&gt;\n &lt;a href=&quot;\nhttp://img3.imageshack.us/img3/7128/snapbh4.png&quot; rel=&quot;nofollow&quot; target=&quot;_NEW&quot;&gt;\nhttp://img3.imageshack.us/img3/7128/snapbh4.png&lt;/a&gt;\n","torrent":{"xt":"urn:btih:ca54ac204e625969bfb48a7543d7b991e56b7ac9","amp;dn":"Burke.and.Hare.2010.BRRIP.720P.H264-ZEKTORM","amp;tr":["udp%3A%2F%2Ftracker.openbittorrent.com%3A80","udp%3A%2F%2Fopen.demonii.com%3A1337","udp%3A%2F%2Ftracker.coppersurfer.tk%3A6969","udp%3A%2F%2Fexodus.desync.com%3A6969"],"infoHash":"ca54ac204e625969bfb48a7543d7b991e56b7ac9","infoHashBuffer":{"type":"Buffer","data":[202,84,172,32,78,98,89,105,191,180,138,117,67,215,185,145,229,107,122,201]},"announce":[],"urlList":[]}}